<svg width="178" height="33" viewBox="0 0 178 33" fill="none" xmlns="http://www.w3.org/2000/svg">
<path d="M1.92999 10.97C2.86999 11.49 4.06 11.77 5.19 11.91H10.66C12.12 11.75 13.29 11.44 14.17 10.97H1.92999ZM16.05 10.97L15.55 11.91H21.34L21.78 10.97H16.05ZM28.13 10.97L28.58 11.91H34.33L33.83 10.97H28.13ZM35.17 11.91H40.43V10.97H35.17V11.91ZM46.4 10.97L47.39 11.91H51.78V10.97H46.4ZM53.5 11.91H66.34V10.97H53.5V11.91ZM69.79 10.97C70.6 11.36 71.66 11.7 73.05 11.91H79.41C80.53 11.74 81.57 11.45 82.54 10.97H69.79ZM87.12 11.91H92.41V10.97H87.12V11.91ZM97.62 10.97L98.26 11.91H104.11L103.37 10.97H97.61H97.62ZM105.29 11.91H121.05V10.97H105.29V11.91ZM122.37 11.91H127.63V10.97H122.37V11.91ZM133.6 10.97L134.59 11.91H138.98V10.97H133.6ZM140.41 11.91H157.22V10.97H140.41V11.91ZM160.91 10.97C161.72 11.36 162.78 11.7 164.17 11.91H170.53C171.65 11.74 172.69 11.45 173.66 10.97H160.91ZM0.369995 9.41C0.529995 9.72 0.760017 10.04 1.08002 10.35H15.09C15.22 10.23 15.35 10.11 15.46 9.99C15.61 9.82 15.74 9.63 15.86 9.42H0.380005L0.369995 9.41ZM16.89 9.41L16.39 10.35H33.49L32.99 9.41H16.89ZM35.17 10.35H40.43V9.41H35.17V10.35ZM44.75 9.41L45.74 10.35H51.78V9.41H44.74H44.75ZM53.5 10.35H66.34V9.41H53.5V10.35ZM67.7 9.41C67.7 9.41 67.78 9.5 67.83 9.55C68.07 9.81 68.37 10.08 68.74 10.35H83.61C84.02 10.07 84.37 9.76 84.69 9.41H67.7ZM87.12 10.35H92.41V9.41H87.12V10.35ZM96.55 9.41L97.19 10.35H102.89L102.15 9.41H96.55ZM105.29 10.35H121.05V9.41H105.29V10.35ZM122.37 10.35H127.63V9.41H122.37V10.35ZM131.95 9.41L132.94 10.35H138.99V9.41H131.95ZM140.41 10.35H157.22V9.41H140.41V10.35ZM158.81 9.41C158.81 9.41 158.89 9.5 158.94 9.55C159.18 9.81 159.48 10.08 159.85 10.35H174.72C175.13 10.07 175.48 9.76 175.8 9.41H158.81ZM0 7.85C0 8.09 0.0200049 8.42 0.130005 8.79H5.92999C5.60999 8.53 5.45001 8.2 5.45001 7.85H0.0100098H0ZM10.84 7.85C10.98 7.98 11.08 8.15 11.08 8.37C11.08 8.52 11.02 8.66 10.93 8.79H16.11C16.18 8.55 16.22 8.29 16.22 8.03C16.22 7.97 16.22 7.91 16.22 7.85H10.84ZM17.72 7.85L17.22 8.79H32.66L32.16 7.85H17.73H17.72ZM35.17 8.79H40.43V7.85H35.17V8.79ZM43.1 7.85L44.09 8.79H51.79V7.85H43.1ZM53.5 8.79H58.81V7.85H53.5V8.79ZM66.72 7.85C66.84 8.17 67 8.48 67.2 8.79H73.32C72.93 8.53 72.63 8.21 72.4 7.85H66.72ZM80.1 7.85C79.89 8.2 79.61 8.52 79.25 8.79H85.17C85.38 8.49 85.54 8.18 85.68 7.85H80.1ZM87.12 8.79H92.41V7.85H87.12V8.79ZM95.47 7.85L96.11 8.79H101.65L100.91 7.85H95.46H95.47ZM105.29 8.79H110.56V7.85H105.29V8.79ZM122.37 8.79H127.63V7.85H122.37V8.79ZM130.3 7.85L131.29 8.79H138.99V7.85H130.3ZM142.45 7.85L141.12 8.79H149L150.27 7.85H142.45ZM157.84 7.85C157.96 8.17 158.12 8.48 158.32 8.79H164.44C164.05 8.53 163.74 8.21 163.52 7.85H157.84ZM171.21 7.85C171 8.2 170.72 8.52 170.36 8.79H176.29C176.49 8.49 176.66 8.18 176.8 7.85H171.22H171.21ZM3.09998 6.29C3.09998 6.29 5.17997 7.23 8.40997 7.23H16.09C15.97 6.9 15.77 6.58 15.47 6.29H3.09998ZM18.55 6.29L18.05 7.23H23.25L23.64 6.29H18.55ZM26.28 6.29L26.68 7.23H31.81L31.31 6.29H26.28ZM35.17 7.23H40.43V6.29H35.17V7.23ZM41.44 6.29L42.43 7.23H51.78V6.29H41.43H41.44ZM53.5 7.23H58.81V6.29H53.5V7.23ZM66.43 6.29C66.44 6.61 66.48 6.92 66.54 7.23H72.09C71.97 6.93 71.91 6.61 71.88 6.29H66.43ZM80.6 6.29C80.57 6.59 80.5 6.91 80.39 7.23H85.88C85.96 6.92 86.01 6.61 86.04 6.29H80.6ZM87.12 6.29V7.23H100.43C100.99 7.11 101.83 6.9 102.6 6.29H87.13H87.12ZM105.29 6.29V7.23H120.07V6.29H105.29ZM122.37 7.23H127.63V6.29H122.37V7.23ZM128.64 6.29L129.63 7.23H138.98V6.29H128.63H128.64ZM144.66 6.29L143.33 7.23H151.12L152.39 6.29H144.66ZM157.54 6.29C157.55 6.61 157.59 6.92 157.65 7.23H163.2C163.09 6.93 163.02 6.61 162.99 6.29H157.54ZM171.72 6.29C171.69 6.59 171.63 6.91 171.51 7.23H177C177.08 6.92 177.13 6.61 177.16 6.29H171.72ZM0.799988 4.73C1.03999 5.12 1.37999 5.43 1.73999 5.67H14.57C14.28 5.53 13.96 5.4 13.58 5.3C12.94 5.11 12.3 4.99 11.64 4.9C11.32 4.85 10.99 4.79 10.67 4.74H0.799988V4.73ZM19.38 4.73L18.88 5.67H23.9L24.29 4.73H19.38ZM25.61 4.73L26.01 5.67H30.98L30.48 4.73H25.62H25.61ZM35.17 4.73V5.67H45.77L44.74 4.73H35.17ZM46.58 5.67H51.79V4.73H46.58V5.67ZM53.5 5.67H58.81V4.73H53.5V5.67ZM66.59 4.73C66.51 5.04 66.46 5.35 66.44 5.67H71.87C71.9 5.36 71.96 5.04 72.08 4.73H66.59ZM80.4 4.73C80.52 5.06 80.58 5.38 80.6 5.67H86.04C86.03 5.36 85.98 5.05 85.9 4.73H80.39H80.4ZM87.12 4.73V5.67H103.2C103.41 5.38 103.57 5.07 103.68 4.73H87.12ZM105.29 5.67H120.07V4.73H105.29V5.67ZM122.37 4.73V5.67H132.97L131.94 4.73H122.37ZM133.78 4.73V5.67H138.99V4.73H133.78ZM146.87 4.73L145.54 5.67H153.23L154.5 4.73H146.87ZM157.7 4.73C157.62 5.04 157.58 5.35 157.55 5.67H162.98C163.01 5.36 163.07 5.04 163.19 4.73H157.69H157.7ZM171.52 4.73C171.64 5.06 171.7 5.38 171.72 5.67H177.16C177.15 5.36 177.1 5.05 177.02 4.73H171.51H171.52ZM0.609985 3.12C0.589985 3.25 0.580017 3.37 0.580017 3.5C0.580017 3.7 0.600015 3.88 0.640015 4.05H6.81C6.37 3.93 5.99998 3.8 5.84998 3.64C5.74998 3.54 5.67999 3.4 5.67999 3.24C5.67999 3.2 5.68 3.15 5.69 3.11H0.609985V3.12ZM10.14 3.12C10.46 3.38 10.62 3.57 10.62 3.92H15.7C15.7 3.68 15.68 3.49 15.57 3.12H10.14ZM23.9 4.06H30.11L29.61 3.12H20.25L19.75 4.06H23.91M35.17 3.12V4.06H43.99L42.96 3.12H35.16H35.17ZM46.58 3.12V4.06H51.79V3.12H46.58ZM53.5 4.06H58.81V3.12H53.5V4.06ZM67.3 3.12C67.1 3.42 66.94 3.73 66.81 4.06H72.43C72.66 3.71 72.97 3.39 73.36 3.12H67.3ZM79.15 3.12C79.55 3.39 79.85 3.71 80.07 4.06H85.69C85.57 3.74 85.4 3.43 85.21 3.12H79.15ZM87.12 4.06H92.41V3.12H87.12V4.06ZM98.39 3.12C98.55 3.38 98.53 3.61 98.53 3.61C98.53 3.78 98.49 3.93 98.42 4.05H103.81C103.81 3.96 103.82 3.87 103.82 3.77C103.82 3.55 103.8 3.33 103.75 3.11H98.39V3.12ZM105.29 4.06H110.58V3.12H105.29V4.06ZM122.37 3.12V4.06H131.2L130.17 3.12H122.37ZM133.78 3.12V4.06H138.99V3.12H133.78ZM149.16 3.12L147.83 4.05H155.42L156.69 3.11H149.15L149.16 3.12ZM158.41 3.12C158.21 3.42 158.05 3.73 157.92 4.06H163.54C163.77 3.71 164.08 3.39 164.47 3.12H158.41ZM170.27 3.12C170.67 3.39 170.97 3.71 171.19 4.06H176.81C176.68 3.74 176.52 3.43 176.32 3.12H170.26H170.27ZM1.45001 1.56C1.17001 1.84 0.949988 2.16 0.799988 2.5H15.32C15.2 2.21 15 1.88 14.68 1.56H1.45001ZM21.08 1.56L20.58 2.5H29.28L28.78 1.56H21.09H21.08ZM35.17 1.56V2.5H42.28L41.25 1.56H35.17ZM46.58 1.56V2.5H51.79V1.56H46.58ZM53.5 2.5H58.81V1.56H53.5V2.5ZM68.85 1.56C68.46 1.83 68.1 2.14 67.78 2.5H84.74C84.45 2.17 84.1 1.85 83.7 1.56H68.86H68.85ZM87.12 1.56V2.5H92.41H96.8C96.86 2.5 96.92 2.5 96.97 2.5H103.56C103.42 2.16 103.23 1.85 103 1.56H87.11H87.12ZM105.29 1.56V2.5H121.05V1.56H105.29ZM122.37 1.56V2.5H129.48L128.45 1.56H122.37ZM133.78 2.5H138.99V1.56H133.78V2.5ZM140.76 2.5H157.24V1.56H140.76V2.5ZM159.97 1.56C159.58 1.83 159.22 2.14 158.9 2.5H175.86C175.57 2.17 175.22 1.85 174.82 1.56H159.98H159.97ZM5.21002 0C5.07002 0.02 4.92999 0.04 4.79999 0.07C3.89999 0.23 3.00002 0.5 2.27002 0.94H14C13.56 0.68 13.01 0.44 12.33 0.26C12.08 0.19 11.75 0.13 11.39 0.07C11.23 0.05 11.07 0.02 10.9 0H5.21997L5.21002 0ZM21.91 0L21.41 0.94H28.43L27.93 0H21.91ZM35.17 0V0.94H40.57L39.54 0H35.17ZM46.58 0V0.94H51.78V0H46.58ZM53.5 0.94H58.81V0H53.5V0.94ZM73.28 0C72.14 0.16 70.98 0.44 69.94 0.94H82.64C82.29 0.77 81.9 0.62 81.48 0.48C80.78 0.26 80.02 0.1 79.25 0L73.28 0ZM87.12 0V0.94H102.35C102.27 0.88 102.18 0.82 102.09 0.76C100.86 0.04 99.27 0.02 97.98 0H87.12ZM105.29 0.94H121.05V0H105.29V0.94ZM122.37 0V0.94H127.77L126.74 0H122.37ZM133.78 0.94H138.99V0H133.78V0.94ZM140.76 0.94H157.24V0H140.76V0.94ZM164.4 0C163.26 0.16 162.1 0.44 161.05 0.94H173.75C173.4 0.77 173.01 0.62 172.59 0.48C171.89 0.26 171.13 0.1 170.36 0H164.39L164.4 0Z" fill="#231F20"/>
<mask id="mask0_854_26731" style="mask-type:luminance" maskUnits="userSpaceOnUse" x="0" y="0" width="178" height="12">
<path d="M1.92999 10.97C2.86999 11.49 4.06 11.77 5.19 11.91H10.66C12.12 11.75 13.29 11.44 14.17 10.97H1.92999ZM16.05 10.97L15.55 11.91H21.34L21.78 10.97H16.05ZM28.13 10.97L28.58 11.91H34.33L33.83 10.97H28.13ZM35.17 11.91H40.43V10.97H35.17V11.91ZM46.4 10.97L47.39 11.91H51.78V10.97H46.4ZM53.5 11.91H66.34V10.97H53.5V11.91ZM69.79 10.97C70.6 11.36 71.66 11.7 73.05 11.91H79.41C80.53 11.74 81.57 11.45 82.54 10.97H69.79ZM87.12 11.91H92.41V10.97H87.12V11.91ZM97.62 10.97L98.26 11.91H104.11L103.37 10.97H97.61H97.62ZM105.29 11.91H121.05V10.97H105.29V11.91ZM122.37 11.91H127.63V10.97H122.37V11.91ZM133.6 10.97L134.59 11.91H138.98V10.97H133.6ZM140.41 11.91H157.22V10.97H140.41V11.91ZM160.91 10.97C161.72 11.36 162.78 11.7 164.17 11.91H170.53C171.65 11.74 172.69 11.45 173.66 10.97H160.91ZM0.369995 9.41C0.529995 9.72 0.760017 10.04 1.08002 10.35H15.09C15.22 10.23 15.35 10.11 15.46 9.99C15.61 9.82 15.74 9.63 15.86 9.42H0.380005L0.369995 9.41ZM16.89 9.41L16.39 10.35H33.49L32.99 9.41H16.89ZM35.17 10.35H40.43V9.41H35.17V10.35ZM44.75 9.41L45.74 10.35H51.78V9.41H44.74H44.75ZM53.5 10.35H66.34V9.41H53.5V10.35ZM67.7 9.41C67.7 9.41 67.78 9.5 67.83 9.55C68.07 9.81 68.37 10.08 68.74 10.35H83.61C84.02 10.07 84.37 9.76 84.69 9.41H67.7ZM87.12 10.35H92.41V9.41H87.12V10.35ZM96.55 9.41L97.19 10.35H102.89L102.15 9.41H96.55ZM105.29 10.35H121.05V9.41H105.29V10.35ZM122.37 10.35H127.63V9.41H122.37V10.35ZM131.95 9.41L132.94 10.35H138.99V9.41H131.95ZM140.41 10.35H157.22V9.41H140.41V10.35ZM158.81 9.41C158.81 9.41 158.89 9.5 158.94 9.55C159.18 9.81 159.48 10.08 159.85 10.35H174.72C175.13 10.07 175.48 9.76 175.8 9.41H158.81ZM0 7.85C0 8.09 0.0200049 8.42 0.130005 8.79H5.92999C5.60999 8.53 5.45001 8.2 5.45001 7.85H0.0100098H0ZM10.84 7.85C10.98 7.98 11.08 8.15 11.08 8.37C11.08 8.52 11.02 8.66 10.93 8.79H16.11C16.18 8.55 16.22 8.29 16.22 8.03C16.22 7.97 16.22 7.91 16.22 7.85H10.84ZM17.72 7.85L17.22 8.79H32.66L32.16 7.85H17.73H17.72ZM35.17 8.79H40.43V7.85H35.17V8.79ZM43.1 7.85L44.09 8.79H51.79V7.85H43.1ZM53.5 8.79H58.81V7.85H53.5V8.79ZM66.72 7.85C66.84 8.17 67 8.48 67.2 8.79H73.32C72.93 8.53 72.63 8.21 72.4 7.85H66.72ZM80.1 7.85C79.89 8.2 79.61 8.52 79.25 8.79H85.17C85.38 8.49 85.54 8.18 85.68 7.85H80.1ZM87.12 8.79H92.41V7.85H87.12V8.79ZM95.47 7.85L96.11 8.79H101.65L100.91 7.85H95.46H95.47ZM105.29 8.79H110.56V7.85H105.29V8.79ZM122.37 8.79H127.63V7.85H122.37V8.79ZM130.3 7.85L131.29 8.79H138.99V7.85H130.3ZM142.45 7.85L141.12 8.79H149L150.27 7.85H142.45ZM157.84 7.85C157.96 8.17 158.12 8.48 158.32 8.79H164.44C164.05 8.53 163.74 8.21 163.52 7.85H157.84ZM171.21 7.85C171 8.2 170.72 8.52 170.36 8.79H176.29C176.49 8.49 176.66 8.18 176.8 7.85H171.22H171.21ZM3.09998 6.29C3.09998 6.29 5.17997 7.23 8.40997 7.23H16.09C15.97 6.9 15.77 6.58 15.47 6.29H3.09998ZM18.55 6.29L18.05 7.23H23.25L23.64 6.29H18.55ZM26.28 6.29L26.68 7.23H31.81L31.31 6.29H26.28ZM35.17 7.23H40.43V6.29H35.17V7.23ZM41.44 6.29L42.43 7.23H51.78V6.29H41.43H41.44ZM53.5 7.23H58.81V6.29H53.5V7.23ZM66.43 6.29C66.44 6.61 66.48 6.92 66.54 7.23H72.09C71.97 6.93 71.91 6.61 71.88 6.29H66.43ZM80.6 6.29C80.57 6.59 80.5 6.91 80.39 7.23H85.88C85.96 6.92 86.01 6.61 86.04 6.29H80.6ZM87.12 6.29V7.23H100.43C100.99 7.11 101.83 6.9 102.6 6.29H87.13H87.12ZM105.29 6.29V7.23H120.07V6.29H105.29ZM122.37 7.23H127.63V6.29H122.37V7.23ZM128.64 6.29L129.63 7.23H138.98V6.29H128.63H128.64ZM144.66 6.29L143.33 7.23H151.12L152.39 6.29H144.66ZM157.54 6.29C157.55 6.61 157.59 6.92 157.65 7.23H163.2C163.09 6.93 163.02 6.61 162.99 6.29H157.54ZM171.72 6.29C171.69 6.59 171.63 6.91 171.51 7.23H177C177.08 6.92 177.13 6.61 177.16 6.29H171.72ZM0.799988 4.73C1.03999 5.12 1.37999 5.43 1.73999 5.67H14.57C14.28 5.53 13.96 5.4 13.58 5.3C12.94 5.11 12.3 4.99 11.64 4.9C11.32 4.85 10.99 4.79 10.67 4.74H0.799988V4.73ZM19.38 4.73L18.88 5.67H23.9L24.29 4.73H19.38ZM25.61 4.73L26.01 5.67H30.98L30.48 4.73H25.62H25.61ZM35.17 4.73V5.67H45.77L44.74 4.73H35.17ZM46.58 5.67H51.79V4.73H46.58V5.67ZM53.5 5.67H58.81V4.73H53.5V5.67ZM66.59 4.73C66.51 5.04 66.46 5.35 66.44 5.67H71.87C71.9 5.36 71.96 5.04 72.08 4.73H66.59ZM80.4 4.73C80.52 5.06 80.58 5.38 80.6 5.67H86.04C86.03 5.36 85.98 5.05 85.9 4.73H80.39H80.4ZM87.12 4.73V5.67H103.2C103.41 5.38 103.57 5.07 103.68 4.73H87.12ZM105.29 5.67H120.07V4.73H105.29V5.67ZM122.37 4.73V5.67H132.97L131.94 4.73H122.37ZM133.78 4.73V5.67H138.99V4.73H133.78ZM146.87 4.73L145.54 5.67H153.23L154.5 4.73H146.87ZM157.7 4.73C157.62 5.04 157.58 5.35 157.55 5.67H162.98C163.01 5.36 163.07 5.04 163.19 4.73H157.69H157.7ZM171.52 4.73C171.64 5.06 171.7 5.38 171.72 5.67H177.16C177.15 5.36 177.1 5.05 177.02 4.73H171.51H171.52ZM0.609985 3.12C0.589985 3.25 0.580017 3.37 0.580017 3.5C0.580017 3.7 0.600015 3.88 0.640015 4.05H6.81C6.37 3.93 5.99998 3.8 5.84998 3.64C5.74998 3.54 5.67999 3.4 5.67999 3.24C5.67999 3.2 5.68 3.15 5.69 3.11H0.609985V3.12ZM10.14 3.12C10.46 3.38 10.62 3.57 10.62 3.92H15.7C15.7 3.68 15.68 3.49 15.57 3.12H10.14ZM23.9 4.06H30.11L29.61 3.12H20.25L19.75 4.06H23.91M35.17 3.12V4.06H43.99L42.96 3.12H35.16H35.17ZM46.58 3.12V4.06H51.79V3.12H46.58ZM53.5 4.06H58.81V3.12H53.5V4.06ZM67.3 3.12C67.1 3.42 66.94 3.73 66.81 4.06H72.43C72.66 3.71 72.97 3.39 73.36 3.12H67.3ZM79.15 3.12C79.55 3.39 79.85 3.71 80.07 4.06H85.69C85.57 3.74 85.4 3.43 85.21 3.12H79.15ZM87.12 4.06H92.41V3.12H87.12V4.06ZM98.39 3.12C98.55 3.38 98.53 3.61 98.53 3.61C98.53 3.78 98.49 3.93 98.42 4.05H103.81C103.81 3.96 103.82 3.87 103.82 3.77C103.82 3.55 103.8 3.33 103.75 3.11H98.39V3.12ZM105.29 4.06H110.58V3.12H105.29V4.06ZM122.37 3.12V4.06H131.2L130.17 3.12H122.37ZM133.78 3.12V4.06H138.99V3.12H133.78ZM149.16 3.12L147.83 4.05H155.42L156.69 3.11H149.15L149.16 3.12ZM158.41 3.12C158.21 3.42 158.05 3.73 157.92 4.06H163.54C163.77 3.71 164.08 3.39 164.47 3.12H158.41ZM170.27 3.12C170.67 3.39 170.97 3.71 171.19 4.06H176.81C176.68 3.74 176.52 3.43 176.32 3.12H170.26H170.27ZM1.45001 1.56C1.17001 1.84 0.949988 2.16 0.799988 2.5H15.32C15.2 2.21 15 1.88 14.68 1.56H1.45001ZM21.08 1.56L20.58 2.5H29.28L28.78 1.56H21.09H21.08ZM35.17 1.56V2.5H42.28L41.25 1.56H35.17ZM46.58 1.56V2.5H51.79V1.56H46.58ZM53.5 2.5H58.81V1.56H53.5V2.5ZM68.85 1.56C68.46 1.83 68.1 2.14 67.78 2.5H84.74C84.45 2.17 84.1 1.85 83.7 1.56H68.86H68.85ZM87.12 1.56V2.5H92.41H96.8C96.86 2.5 96.92 2.5 96.97 2.5H103.56C103.42 2.16 103.23 1.85 103 1.56H87.11H87.12ZM105.29 1.56V2.5H121.05V1.56H105.29ZM122.37 1.56V2.5H129.48L128.45 1.56H122.37ZM133.78 2.5H138.99V1.56H133.78V2.5ZM140.76 2.5H157.24V1.56H140.76V2.5ZM159.97 1.56C159.58 1.83 159.22 2.14 158.9 2.5H175.86C175.57 2.17 175.22 1.85 174.82 1.56H159.98H159.97ZM5.21002 0C5.07002 0.02 4.92999 0.04 4.79999 0.07C3.89999 0.23 3.00002 0.5 2.27002 0.94H14C13.56 0.68 13.01 0.44 12.33 0.26C12.08 0.19 11.75 0.13 11.39 0.07C11.23 0.05 11.07 0.02 10.9 0H5.21997L5.21002 0ZM21.91 0L21.41 0.94H28.43L27.93 0H21.91ZM35.17 0V0.94H40.57L39.54 0H35.17ZM46.58 0V0.94H51.78V0H46.58ZM53.5 0.94H58.81V0H53.5V0.94ZM73.28 0C72.14 0.16 70.98 0.44 69.94 0.94H82.64C82.29 0.77 81.9 0.62 81.48 0.48C80.78 0.26 80.02 0.1 79.25 0L73.28 0ZM87.12 0V0.94H102.35C102.27 0.88 102.18 0.82 102.09 0.76C100.86 0.04 99.27 0.02 97.98 0H87.12ZM105.29 0.94H121.05V0H105.29V0.94ZM122.37 0V0.94H127.77L126.74 0H122.37ZM133.78 0.94H138.99V0H133.78V0.94ZM140.76 0.94H157.24V0H140.76V0.94ZM164.4 0C163.26 0.16 162.1 0.44 161.05 0.94H173.75C173.4 0.77 173.01 0.62 172.59 0.48C171.89 0.26 171.13 0.1 170.36 0H164.39L164.4 0Z" fill="white"/>
</mask>
<g mask="url(#mask0_854_26731)">
<path d="M177.17 0H0V11.91H177.17V0Z" fill="#231F20"/>
</g>
<path d="M79.6794 30.3807H73.6894L72.7294 32.5507H71.3594L76.0094 22.2207H77.3494L81.9994 32.5507H80.6394L79.6794 30.3807ZM79.2094 29.2807L76.6994 23.5807H76.6694L74.1594 29.2807H79.2094Z" fill="#231F20"/>
<path d="M83.9922 28.73C84.2422 30.69 85.4222 31.64 87.5922 31.64C89.2622 31.64 90.3222 30.96 90.3222 29.85C90.3222 28.74 89.5122 28.24 86.9922 27.71C84.0422 27.12 83.0222 26.37 83.0222 24.85C83.0222 23.18 84.5822 22 86.8122 22C89.0422 22 90.7922 23.31 91.1222 25.22L89.8722 25.47C89.5922 23.99 88.4522 23.14 86.8022 23.14C85.3122 23.14 84.2922 23.82 84.2922 24.82C84.2922 25.71 85.0022 26.1 87.3022 26.58C90.4722 27.23 91.6122 28.1 91.6122 29.83C91.6122 31.56 90.0222 32.78 87.5822 32.78C84.7622 32.78 82.9922 31.36 82.7422 28.93L83.9922 28.74V28.73Z" fill="#231F20"/>
<path d="M93.9688 22.2207H95.2388V32.5507H93.9688V22.2207Z" fill="#231F20"/>
<path d="M105.5 30.3807H99.5097L98.5497 32.5507H97.1797L101.83 22.2207H103.17L107.82 32.5507H106.46L105.5 30.3807ZM105.02 29.2807L102.51 23.5807H102.48L99.9697 29.2807H105.02Z" fill="#231F20"/>
<path d="M109.219 27.3906H113.069V28.5406H109.219V27.3906Z" fill="#231F20"/>
<path d="M115.688 22.2209H120.958C123.158 22.2209 124.518 23.4409 124.518 25.3909C124.518 27.3409 123.158 28.5609 120.958 28.5609H116.958V32.5409H115.688V22.2109V22.2209ZM120.907 27.4009C122.487 27.4009 123.227 26.7509 123.227 25.3909C123.227 24.0309 122.487 23.3809 120.907 23.3809H116.958V27.3909H120.907V27.4009Z" fill="#231F20"/>
<path d="M132.679 30.3807H126.689L125.729 32.5507H124.359L129.009 22.2207H130.349L134.999 32.5507H133.639L132.679 30.3807ZM132.209 29.2807L129.699 23.5807H129.669L127.159 29.2807H132.209Z" fill="#231F20"/>
<path d="M141.057 22.0007C143.517 22.0007 145.527 23.3907 145.967 25.4407L144.717 25.7507C144.287 24.0807 142.897 23.1707 141.057 23.1707C138.737 23.1707 137.047 24.8707 137.047 27.3907C137.047 29.9107 138.747 31.6107 141.057 31.6107C142.927 31.6107 144.277 30.6107 144.727 28.7307L145.967 29.0407C145.527 31.3107 143.547 32.7707 141.057 32.7707C138.007 32.8107 135.687 30.4207 135.727 27.3807C135.687 24.3407 137.997 21.9507 141.057 21.9907V22.0007Z" fill="#231F20"/>
<path d="M148.336 22.2207H149.606V32.5507H148.336V22.2207Z" fill="#231F20"/>
<path d="M152.742 22.2207H160.182V23.3907H154.012V27.0907H159.712V28.2007H154.012V32.5507H152.742V22.2207Z" fill="#231F20"/>
<path d="M162.711 22.2207H163.981V32.5507H162.711V22.2207Z" fill="#231F20"/>
<path d="M171.831 22.0007C174.291 22.0007 176.301 23.3907 176.741 25.4407L175.491 25.7507C175.061 24.0807 173.681 23.1707 171.831 23.1707C169.511 23.1707 167.821 24.8707 167.821 27.3907C167.821 29.9107 169.521 31.6107 171.831 31.6107C173.701 31.6107 175.051 30.6107 175.501 28.7307L176.741 29.0407C176.301 31.3107 174.321 32.7707 171.831 32.7707C168.781 32.8107 166.461 30.4207 166.501 27.3807C166.461 24.3407 168.771 21.9507 171.831 21.9907V22.0007Z" fill="#231F20"/>
</svg>
