<svg width="27" height="24" viewBox="0 0 27 24" fill="none" xmlns="http://www.w3.org/2000/svg">
<g clip-path="url(#clip0_824_1300523)">
<path fill-rule="evenodd" clip-rule="evenodd" d="M7.71387 6.96387C7.71387 6.17518 8.35315 5.53589 9.14185 5.53589C9.93055 5.53589 10.5696 6.17518 10.5696 6.96387C10.5696 7.75257 9.93029 8.39185 9.14185 8.39185C8.35341 8.39185 7.71387 7.75231 7.71387 6.96387Z" fill="black" fill-opacity="0.6"/>
<path d="M10.3869 9.59644H7.89746V17.6508H10.3869V9.59644Z" fill="black" fill-opacity="0.6"/>
<path fill-rule="evenodd" clip-rule="evenodd" d="M19.4906 11.1859C19.3206 10.8176 19.1356 10.4654 18.8126 10.2049C18.4976 9.95056 18.1301 9.71239 17.7401 9.59291C17.2982 9.4573 16.9704 9.43023 16.5092 9.44975C15.5943 9.48775 14.5812 10.0123 14.0663 10.764V9.59291H11.7783V17.647H14.2071V13.3245C14.2071 13.279 14.2186 12.5486 14.7561 12.0639C15.423 11.4631 17.3614 11.429 17.3614 13.2659L17.3552 17.647H19.7962V12.4481C19.7962 12.0168 19.67 11.574 19.4906 11.1859Z" fill="black" fill-opacity="0.6"/>
</g>
<defs>
<clipPath id="clip0_824_1300523">
<rect width="12.0814" height="12.1118" fill="white" transform="translate(7.71191 5.53589)"/>
</clipPath>
</defs>
</svg>
