<svg width="178" height="33" viewBox="0 0 178 33" fill="none" xmlns="http://www.w3.org/2000/svg">
<path d="M142.25 21.9512H143.96L148.18 30.3012H148.21L152.42 21.9512H154.13V32.2812H152.85V23.7112H152.82L148.45 32.2812H147.93L143.55 23.7112H143.52V32.2812H142.25V21.9512Z" fill="#231F20"/>
<path d="M157.25 21.9512H164.67V23.1212H158.52V26.4012H164.2V27.5112H158.52V31.1312H164.67V32.3012H157.25V21.9712V21.9512Z" fill="#231F20"/>
<path d="M167.359 21.9514H171.369C174.599 21.9514 176.479 23.7614 176.479 27.1114C176.479 30.4614 174.649 32.2714 171.349 32.2714H167.369V21.9414L167.359 21.9514ZM171.299 31.1114C173.879 31.1114 175.169 29.8414 175.169 27.1114C175.169 24.3814 173.889 23.1114 171.329 23.1114H168.629V31.1114H171.299Z" fill="#231F20"/>
<path d="M1.92999 10.97C2.86999 11.49 4.06 11.77 5.19 11.91H10.66C12.12 11.75 13.29 11.44 14.17 10.97H1.92999ZM16.05 10.97L15.55 11.91H21.34L21.78 10.97H16.05ZM28.13 10.97L28.58 11.91H34.33L33.83 10.97H28.13ZM35.16 11.91H40.42V10.97H35.16V11.91ZM46.4 10.97L47.39 11.91H51.78V10.97H46.4ZM53.5 11.91H66.34V10.97H53.5V11.91ZM69.79 10.97C70.6 11.36 71.66 11.7 73.05 11.91H79.41C80.53 11.74 81.57 11.45 82.54 10.97H69.79ZM87.12 11.91H92.41V10.97H87.12V11.91ZM97.62 10.97L98.26 11.91H104.11L103.37 10.97H97.61H97.62ZM105.28 11.91H121.04V10.97H105.28V11.91ZM122.36 11.91H127.62V10.97H122.36V11.91ZM133.6 10.97L134.59 11.91H138.98V10.97H133.6ZM140.41 11.91H157.22V10.97H140.41V11.91ZM160.9 10.97C161.71 11.36 162.77 11.7 164.16 11.91H170.52C171.64 11.74 172.68 11.45 173.65 10.97H160.9ZM0.369995 9.40999C0.529995 9.71999 0.760017 10.04 1.08002 10.35H15.09C15.22 10.23 15.35 10.11 15.46 9.98999C15.61 9.81999 15.74 9.63 15.86 9.42H0.380005L0.369995 9.40999ZM16.88 9.40999L16.38 10.35H33.48L32.98 9.40999H16.88ZM35.16 10.35H40.42V9.40999H35.16V10.35ZM44.75 9.40999L45.74 10.35H51.78V9.40999H44.74H44.75ZM53.5 10.35H66.34V9.40999H53.5V10.35ZM67.69 9.40999C67.69 9.40999 67.77 9.5 67.82 9.55C68.06 9.81 68.36 10.08 68.73 10.35H83.6C84.01 10.07 84.36 9.75999 84.68 9.40999H67.69ZM87.12 10.35H92.41V9.40999H87.12V10.35ZM96.55 9.40999L97.19 10.35H102.89L102.15 9.40999H96.55ZM105.28 10.35H121.04V9.40999H105.28V10.35ZM122.36 10.35H127.62V9.40999H122.36V10.35ZM131.95 9.40999L132.94 10.35H138.99V9.40999H131.95ZM140.41 10.35H157.22V9.40999H140.41V10.35ZM158.81 9.40999C158.81 9.40999 158.89 9.5 158.94 9.55C159.18 9.81 159.48 10.08 159.85 10.35H174.72C175.13 10.07 175.48 9.75999 175.8 9.40999H158.81ZM0 7.84999C0 8.08999 0.0200049 8.41999 0.130005 8.78999H5.92999C5.60999 8.52999 5.45001 8.19999 5.45001 7.84999H0.0100098H0ZM10.84 7.84999C10.98 7.97999 11.08 8.15 11.08 8.37C11.08 8.52 11.02 8.65999 10.93 8.78999H16.11C16.18 8.54999 16.22 8.29 16.22 8.03C16.22 7.97 16.22 7.90999 16.22 7.84999H10.84ZM17.72 7.84999L17.22 8.78999H32.66L32.16 7.84999H17.73H17.72ZM35.16 8.78999H40.42V7.84999H35.16V8.78999ZM43.09 7.84999L44.08 8.78999H51.78V7.84999H43.09ZM53.5 8.78999H58.81V7.84999H53.5V8.78999ZM66.72 7.84999C66.84 8.16999 67 8.47999 67.2 8.78999H73.32C72.93 8.52999 72.63 8.20999 72.4 7.84999H66.72ZM80.09 7.84999C79.88 8.19999 79.6 8.51999 79.24 8.78999H85.16C85.37 8.48999 85.53 8.17999 85.67 7.84999H80.09ZM87.12 8.78999H92.41V7.84999H87.12V8.78999ZM95.47 7.84999L96.11 8.78999H101.65L100.91 7.84999H95.46H95.47ZM105.28 8.78999H110.55V7.84999H105.28V8.78999ZM122.36 8.78999H127.62V7.84999H122.36V8.78999ZM130.29 7.84999L131.28 8.78999H138.98V7.84999H130.29ZM142.45 7.84999L141.12 8.78999H149L150.27 7.84999H142.45ZM157.84 7.84999C157.96 8.16999 158.12 8.47999 158.32 8.78999H164.44C164.05 8.52999 163.74 8.20999 163.52 7.84999H157.84ZM171.21 7.84999C171 8.19999 170.72 8.51999 170.36 8.78999H176.29C176.49 8.48999 176.66 8.17999 176.8 7.84999H171.22H171.21ZM3.09998 6.28999C3.09998 6.28999 5.17997 7.23 8.40997 7.23H16.09C15.97 6.9 15.77 6.57999 15.47 6.28999H3.09998ZM18.55 6.28999L18.05 7.23H23.25L23.64 6.28999H18.55ZM26.28 6.28999L26.68 7.23H31.81L31.31 6.28999H26.28ZM35.16 7.23H40.42V6.28999H35.16V7.23ZM41.44 6.28999L42.43 7.23H51.78V6.28999H41.43H41.44ZM53.5 7.23H58.81V6.28999H53.5V7.23ZM66.42 6.28999C66.43 6.60999 66.47 6.92 66.53 7.23H72.08C71.96 6.93 71.9 6.60999 71.87 6.28999H66.42ZM80.6 6.28999C80.57 6.58999 80.5 6.91 80.39 7.23H85.88C85.96 6.92 86.01 6.60999 86.04 6.28999H80.6ZM87.12 6.28999V7.23H100.43C100.99 7.11 101.83 6.89999 102.6 6.28999H87.13H87.12ZM105.28 6.28999V7.23H120.06V6.28999H105.28ZM122.36 7.23H127.62V6.28999H122.36V7.23ZM128.64 6.28999L129.63 7.23H138.98V6.28999H128.63H128.64ZM144.66 6.28999L143.33 7.23H151.12L152.39 6.28999H144.66ZM157.54 6.28999C157.55 6.60999 157.59 6.92 157.65 7.23H163.2C163.09 6.93 163.02 6.60999 162.99 6.28999H157.54ZM171.72 6.28999C171.69 6.58999 171.63 6.91 171.51 7.23H177C177.08 6.92 177.13 6.60999 177.16 6.28999H171.72ZM0.799988 4.73C1.03999 5.12 1.37999 5.43 1.73999 5.67H14.57C14.28 5.53 13.96 5.4 13.58 5.3C12.94 5.11 12.3 4.98999 11.64 4.89999C11.32 4.84999 10.99 4.78999 10.67 4.73999H0.799988V4.73ZM19.38 4.73L18.88 5.67H23.9L24.29 4.73H19.38ZM25.61 4.73L26.01 5.67H30.98L30.48 4.73H25.62H25.61ZM35.16 4.73V5.67H45.76L44.73 4.73H35.16ZM46.58 5.67H51.79V4.73H46.58V5.67ZM53.5 5.67H58.81V4.73H53.5V5.67ZM66.58 4.73C66.5 5.04 66.45 5.35 66.43 5.67H71.86C71.89 5.36 71.95 5.04 72.07 4.73H66.58ZM80.4 4.73C80.52 5.06 80.58 5.38 80.6 5.67H86.04C86.03 5.36 85.98 5.05 85.9 4.73H80.39H80.4ZM87.12 4.73V5.67H103.2C103.41 5.38 103.57 5.07 103.68 4.73H87.12ZM105.28 5.67H120.06V4.73H105.28V5.67ZM122.36 4.73V5.67H132.96L131.93 4.73H122.36ZM133.78 4.73V5.67H138.99V4.73H133.78ZM146.87 4.73L145.54 5.67H153.23L154.5 4.73H146.87ZM157.7 4.73C157.62 5.04 157.58 5.35 157.55 5.67H162.98C163.01 5.36 163.07 5.04 163.19 4.73H157.69H157.7ZM171.52 4.73C171.64 5.06 171.7 5.38 171.72 5.67H177.16C177.15 5.36 177.1 5.05 177.02 4.73H171.51H171.52ZM0.609985 3.12C0.589985 3.25 0.580017 3.37 0.580017 3.5C0.580017 3.7 0.600015 3.88 0.640015 4.05H6.81C6.37 3.93 5.99998 3.8 5.84998 3.64C5.74998 3.54 5.67999 3.39999 5.67999 3.23999C5.67999 3.19999 5.68 3.15 5.69 3.11H0.609985V3.12ZM10.14 3.12C10.46 3.38 10.62 3.57 10.62 3.92H15.7C15.7 3.68 15.68 3.49 15.57 3.12H10.14ZM23.9 4.05H30.11L29.61 3.11H20.25L19.75 4.05H23.91M35.16 3.12V4.06H43.98L42.95 3.12H35.15H35.16ZM46.58 3.12V4.06H51.79V3.12H46.58ZM53.5 4.05H58.81V3.11H53.5V4.05ZM67.29 3.12C67.09 3.42 66.93 3.73 66.8 4.06H72.42C72.65 3.71 72.96 3.39 73.35 3.12H67.29ZM79.15 3.12C79.55 3.39 79.85 3.71 80.07 4.06H85.69C85.57 3.74 85.4 3.43 85.21 3.12H79.15ZM87.12 4.05H92.41V3.11H87.12V4.05ZM98.39 3.12C98.55 3.38 98.53 3.61 98.53 3.61C98.53 3.78 98.49 3.93 98.42 4.05H103.81C103.81 3.96 103.82 3.86999 103.82 3.76999C103.82 3.54999 103.8 3.33 103.75 3.11H98.39V3.12ZM105.28 4.05H110.57V3.11H105.28V4.05ZM122.36 3.12V4.06H131.19L130.16 3.12H122.36ZM133.78 3.12V4.06H138.99V3.12H133.78ZM149.16 3.12L147.83 4.05H155.42L156.69 3.11H149.15L149.16 3.12ZM158.41 3.12C158.21 3.42 158.05 3.73 157.92 4.06H163.54C163.77 3.71 164.08 3.39 164.47 3.12H158.41ZM170.27 3.12C170.67 3.39 170.97 3.71 171.19 4.06H176.81C176.68 3.74 176.52 3.43 176.32 3.12H170.26H170.27ZM1.45001 1.56C1.17001 1.84 0.949988 2.16 0.799988 2.5H15.32C15.2 2.21 15 1.88 14.68 1.56H1.45001ZM21.08 1.56L20.58 2.5H29.28L28.78 1.56H21.09H21.08ZM35.16 1.56V2.5H42.27L41.24 1.56H35.16ZM46.58 1.56V2.5H51.79V1.56H46.58ZM53.5 2.5H58.81V1.56H53.5V2.5ZM68.85 1.56C68.46 1.83 68.1 2.14 67.78 2.5H84.74C84.45 2.17 84.1 1.85 83.7 1.56H68.86H68.85ZM87.12 1.56V2.5H92.41H96.8C96.86 2.5 96.92 2.5 96.97 2.5H103.56C103.42 2.16 103.23 1.85 103 1.56H87.11H87.12ZM105.28 1.56V2.5H121.04V1.56H105.28ZM122.36 1.56V2.5H129.47L128.44 1.56H122.36ZM133.78 2.5H138.99V1.56H133.78V2.5ZM140.76 2.5H157.24V1.56H140.76V2.5ZM159.97 1.56C159.58 1.83 159.22 2.14 158.9 2.5H175.86C175.57 2.17 175.22 1.85 174.82 1.56H159.98H159.97ZM5.21002 0C5.07002 0.02 4.92999 0.0399921 4.79999 0.0699921C3.89999 0.229992 3.00002 0.500002 2.27002 0.940002H14C13.56 0.680002 13.01 0.439995 12.33 0.259995C12.08 0.189995 11.75 0.129992 11.39 0.0699921C11.23 0.0499921 11.07 0.02 10.9 0H5.21997H5.21002ZM21.91 0L21.41 0.940002H28.43L27.93 0H21.91ZM35.16 0V0.940002H40.56L39.53 0H35.16ZM46.58 0V0.940002H51.78V0H46.58ZM53.5 0.940002H58.81V0H53.5V0.940002ZM73.28 0C72.14 0.16 70.98 0.440002 69.94 0.940002H82.64C82.29 0.770002 81.9 0.619996 81.48 0.479996C80.78 0.259996 80.02 0.1 79.25 0H73.28ZM87.12 0V0.940002H102.35C102.27 0.880002 102.18 0.819995 102.09 0.759995C100.86 0.0399945 99.27 0.02 97.98 0H87.12ZM105.28 0.940002H121.04V0H105.28V0.940002ZM122.36 0V0.940002H127.76L126.73 0H122.36ZM133.78 0.940002H138.99V0H133.78V0.940002ZM140.76 0.940002H157.24V0H140.76V0.940002ZM164.4 0C163.26 0.16 162.1 0.440002 161.05 0.940002H173.75C173.4 0.770002 173.01 0.619996 172.59 0.479996C171.89 0.259996 171.13 0.1 170.36 0H164.39H164.4Z" fill="#231F20"/>
<mask id="mask0_854_26730" style="mask-type:luminance" maskUnits="userSpaceOnUse" x="0" y="0" width="178" height="12">
<path d="M1.92999 10.97C2.86999 11.49 4.06 11.77 5.19 11.91H10.66C12.12 11.75 13.29 11.44 14.17 10.97H1.92999ZM16.05 10.97L15.55 11.91H21.34L21.78 10.97H16.05ZM28.13 10.97L28.58 11.91H34.33L33.83 10.97H28.13ZM35.16 11.91H40.42V10.97H35.16V11.91ZM46.4 10.97L47.39 11.91H51.78V10.97H46.4ZM53.5 11.91H66.34V10.97H53.5V11.91ZM69.79 10.97C70.6 11.36 71.66 11.7 73.05 11.91H79.41C80.53 11.74 81.57 11.45 82.54 10.97H69.79ZM87.12 11.91H92.41V10.97H87.12V11.91ZM97.62 10.97L98.26 11.91H104.11L103.37 10.97H97.61H97.62ZM105.28 11.91H121.04V10.97H105.28V11.91ZM122.36 11.91H127.62V10.97H122.36V11.91ZM133.6 10.97L134.59 11.91H138.98V10.97H133.6ZM140.41 11.91H157.22V10.97H140.41V11.91ZM160.9 10.97C161.71 11.36 162.77 11.7 164.16 11.91H170.52C171.64 11.74 172.68 11.45 173.65 10.97H160.9ZM0.369995 9.40999C0.529995 9.71999 0.760017 10.04 1.08002 10.35H15.09C15.22 10.23 15.35 10.11 15.46 9.98999C15.61 9.81999 15.74 9.63 15.86 9.42H0.380005L0.369995 9.40999ZM16.88 9.40999L16.38 10.35H33.48L32.98 9.40999H16.88ZM35.16 10.35H40.42V9.40999H35.16V10.35ZM44.75 9.40999L45.74 10.35H51.78V9.40999H44.74H44.75ZM53.5 10.35H66.34V9.40999H53.5V10.35ZM67.69 9.40999C67.69 9.40999 67.77 9.5 67.82 9.55C68.06 9.81 68.36 10.08 68.73 10.35H83.6C84.01 10.07 84.36 9.75999 84.68 9.40999H67.69ZM87.12 10.35H92.41V9.40999H87.12V10.35ZM96.55 9.40999L97.19 10.35H102.89L102.15 9.40999H96.55ZM105.28 10.35H121.04V9.40999H105.28V10.35ZM122.36 10.35H127.62V9.40999H122.36V10.35ZM131.95 9.40999L132.94 10.35H138.99V9.40999H131.95ZM140.41 10.35H157.22V9.40999H140.41V10.35ZM158.81 9.40999C158.81 9.40999 158.89 9.5 158.94 9.55C159.18 9.81 159.48 10.08 159.85 10.35H174.72C175.13 10.07 175.48 9.75999 175.8 9.40999H158.81ZM0 7.84999C0 8.08999 0.0200049 8.41999 0.130005 8.78999H5.92999C5.60999 8.52999 5.45001 8.19999 5.45001 7.84999H0.0100098H0ZM10.84 7.84999C10.98 7.97999 11.08 8.15 11.08 8.37C11.08 8.52 11.02 8.65999 10.93 8.78999H16.11C16.18 8.54999 16.22 8.29 16.22 8.03C16.22 7.97 16.22 7.90999 16.22 7.84999H10.84ZM17.72 7.84999L17.22 8.78999H32.66L32.16 7.84999H17.73H17.72ZM35.16 8.78999H40.42V7.84999H35.16V8.78999ZM43.09 7.84999L44.08 8.78999H51.78V7.84999H43.09ZM53.5 8.78999H58.81V7.84999H53.5V8.78999ZM66.72 7.84999C66.84 8.16999 67 8.47999 67.2 8.78999H73.32C72.93 8.52999 72.63 8.20999 72.4 7.84999H66.72ZM80.09 7.84999C79.88 8.19999 79.6 8.51999 79.24 8.78999H85.16C85.37 8.48999 85.53 8.17999 85.67 7.84999H80.09ZM87.12 8.78999H92.41V7.84999H87.12V8.78999ZM95.47 7.84999L96.11 8.78999H101.65L100.91 7.84999H95.46H95.47ZM105.28 8.78999H110.55V7.84999H105.28V8.78999ZM122.36 8.78999H127.62V7.84999H122.36V8.78999ZM130.29 7.84999L131.28 8.78999H138.98V7.84999H130.29ZM142.45 7.84999L141.12 8.78999H149L150.27 7.84999H142.45ZM157.84 7.84999C157.96 8.16999 158.12 8.47999 158.32 8.78999H164.44C164.05 8.52999 163.74 8.20999 163.52 7.84999H157.84ZM171.21 7.84999C171 8.19999 170.72 8.51999 170.36 8.78999H176.29C176.49 8.48999 176.66 8.17999 176.8 7.84999H171.22H171.21ZM3.09998 6.28999C3.09998 6.28999 5.17997 7.23 8.40997 7.23H16.09C15.97 6.9 15.77 6.57999 15.47 6.28999H3.09998ZM18.55 6.28999L18.05 7.23H23.25L23.64 6.28999H18.55ZM26.28 6.28999L26.68 7.23H31.81L31.31 6.28999H26.28ZM35.16 7.23H40.42V6.28999H35.16V7.23ZM41.44 6.28999L42.43 7.23H51.78V6.28999H41.43H41.44ZM53.5 7.23H58.81V6.28999H53.5V7.23ZM66.42 6.28999C66.43 6.60999 66.47 6.92 66.53 7.23H72.08C71.96 6.93 71.9 6.60999 71.87 6.28999H66.42ZM80.6 6.28999C80.57 6.58999 80.5 6.91 80.39 7.23H85.88C85.96 6.92 86.01 6.60999 86.04 6.28999H80.6ZM87.12 6.28999V7.23H100.43C100.99 7.11 101.83 6.89999 102.6 6.28999H87.13H87.12ZM105.28 6.28999V7.23H120.06V6.28999H105.28ZM122.36 7.23H127.62V6.28999H122.36V7.23ZM128.64 6.28999L129.63 7.23H138.98V6.28999H128.63H128.64ZM144.66 6.28999L143.33 7.23H151.12L152.39 6.28999H144.66ZM157.54 6.28999C157.55 6.60999 157.59 6.92 157.65 7.23H163.2C163.09 6.93 163.02 6.60999 162.99 6.28999H157.54ZM171.72 6.28999C171.69 6.58999 171.63 6.91 171.51 7.23H177C177.08 6.92 177.13 6.60999 177.16 6.28999H171.72ZM0.799988 4.73C1.03999 5.12 1.37999 5.43 1.73999 5.67H14.57C14.28 5.53 13.96 5.4 13.58 5.3C12.94 5.11 12.3 4.98999 11.64 4.89999C11.32 4.84999 10.99 4.78999 10.67 4.73999H0.799988V4.73ZM19.38 4.73L18.88 5.67H23.9L24.29 4.73H19.38ZM25.61 4.73L26.01 5.67H30.98L30.48 4.73H25.62H25.61ZM35.16 4.73V5.67H45.76L44.73 4.73H35.16ZM46.58 5.67H51.79V4.73H46.58V5.67ZM53.5 5.67H58.81V4.73H53.5V5.67ZM66.58 4.73C66.5 5.04 66.45 5.35 66.43 5.67H71.86C71.89 5.36 71.95 5.04 72.07 4.73H66.58ZM80.4 4.73C80.52 5.06 80.58 5.38 80.6 5.67H86.04C86.03 5.36 85.98 5.05 85.9 4.73H80.39H80.4ZM87.12 4.73V5.67H103.2C103.41 5.38 103.57 5.07 103.68 4.73H87.12ZM105.28 5.67H120.06V4.73H105.28V5.67ZM122.36 4.73V5.67H132.96L131.93 4.73H122.36ZM133.78 4.73V5.67H138.99V4.73H133.78ZM146.87 4.73L145.54 5.67H153.23L154.5 4.73H146.87ZM157.7 4.73C157.62 5.04 157.58 5.35 157.55 5.67H162.98C163.01 5.36 163.07 5.04 163.19 4.73H157.69H157.7ZM171.52 4.73C171.64 5.06 171.7 5.38 171.72 5.67H177.16C177.15 5.36 177.1 5.05 177.02 4.73H171.51H171.52ZM0.609985 3.12C0.589985 3.25 0.580017 3.37 0.580017 3.5C0.580017 3.7 0.600015 3.88 0.640015 4.05H6.81C6.37 3.93 5.99998 3.8 5.84998 3.64C5.74998 3.54 5.67999 3.39999 5.67999 3.23999C5.67999 3.19999 5.68 3.15 5.69 3.11H0.609985V3.12ZM10.14 3.12C10.46 3.38 10.62 3.57 10.62 3.92H15.7C15.7 3.68 15.68 3.49 15.57 3.12H10.14ZM23.9 4.05H30.11L29.61 3.11H20.25L19.75 4.05H23.91M35.16 3.12V4.06H43.98L42.95 3.12H35.15H35.16ZM46.58 3.12V4.06H51.79V3.12H46.58ZM53.5 4.05H58.81V3.11H53.5V4.05ZM67.29 3.12C67.09 3.42 66.93 3.73 66.8 4.06H72.42C72.65 3.71 72.96 3.39 73.35 3.12H67.29ZM79.15 3.12C79.55 3.39 79.85 3.71 80.07 4.06H85.69C85.57 3.74 85.4 3.43 85.21 3.12H79.15ZM87.12 4.05H92.41V3.11H87.12V4.05ZM98.39 3.12C98.55 3.38 98.53 3.61 98.53 3.61C98.53 3.78 98.49 3.93 98.42 4.05H103.81C103.81 3.96 103.82 3.86999 103.82 3.76999C103.82 3.54999 103.8 3.33 103.75 3.11H98.39V3.12ZM105.28 4.05H110.57V3.11H105.28V4.05ZM122.36 3.12V4.06H131.19L130.16 3.12H122.36ZM133.78 3.12V4.06H138.99V3.12H133.78ZM149.16 3.12L147.83 4.05H155.42L156.69 3.11H149.15L149.16 3.12ZM158.41 3.12C158.21 3.42 158.05 3.73 157.92 4.06H163.54C163.77 3.71 164.08 3.39 164.47 3.12H158.41ZM170.27 3.12C170.67 3.39 170.97 3.71 171.19 4.06H176.81C176.68 3.74 176.52 3.43 176.32 3.12H170.26H170.27ZM1.45001 1.56C1.17001 1.84 0.949988 2.16 0.799988 2.5H15.32C15.2 2.21 15 1.88 14.68 1.56H1.45001ZM21.08 1.56L20.58 2.5H29.28L28.78 1.56H21.09H21.08ZM35.16 1.56V2.5H42.27L41.24 1.56H35.16ZM46.58 1.56V2.5H51.79V1.56H46.58ZM53.5 2.5H58.81V1.56H53.5V2.5ZM68.85 1.56C68.46 1.83 68.1 2.14 67.78 2.5H84.74C84.45 2.17 84.1 1.85 83.7 1.56H68.86H68.85ZM87.12 1.56V2.5H92.41H96.8C96.86 2.5 96.92 2.5 96.97 2.5H103.56C103.42 2.16 103.23 1.85 103 1.56H87.11H87.12ZM105.28 1.56V2.5H121.04V1.56H105.28ZM122.36 1.56V2.5H129.47L128.44 1.56H122.36ZM133.78 2.5H138.99V1.56H133.78V2.5ZM140.76 2.5H157.24V1.56H140.76V2.5ZM159.97 1.56C159.58 1.83 159.22 2.14 158.9 2.5H175.86C175.57 2.17 175.22 1.85 174.82 1.56H159.98H159.97ZM5.21002 0C5.07002 0.02 4.92999 0.0399921 4.79999 0.0699921C3.89999 0.229992 3.00002 0.500002 2.27002 0.940002H14C13.56 0.680002 13.01 0.439995 12.33 0.259995C12.08 0.189995 11.75 0.129992 11.39 0.0699921C11.23 0.0499921 11.07 0.02 10.9 0H5.21997H5.21002ZM21.91 0L21.41 0.940002H28.43L27.93 0H21.91ZM35.16 0V0.940002H40.56L39.53 0H35.16ZM46.58 0V0.940002H51.78V0H46.58ZM53.5 0.940002H58.81V0H53.5V0.940002ZM73.28 0C72.14 0.16 70.98 0.440002 69.94 0.940002H82.64C82.29 0.770002 81.9 0.619996 81.48 0.479996C80.78 0.259996 80.02 0.1 79.25 0H73.28ZM87.12 0V0.940002H102.35C102.27 0.880002 102.18 0.819995 102.09 0.759995C100.86 0.0399945 99.27 0.02 97.98 0H87.12ZM105.28 0.940002H121.04V0H105.28V0.940002ZM122.36 0V0.940002H127.76L126.73 0H122.36ZM133.78 0.940002H138.99V0H133.78V0.940002ZM140.76 0.940002H157.24V0H140.76V0.940002ZM164.4 0C163.26 0.16 162.1 0.440002 161.05 0.940002H173.75C173.4 0.770002 173.01 0.619996 172.59 0.479996C171.89 0.259996 171.13 0.1 170.36 0H164.39H164.4Z" fill="white"/>
</mask>
<g mask="url(#mask0_854_26730)">
<path d="M177.17 0H0V11.91H177.17V0Z" fill="#231F20"/>
</g>
</svg>
