<svg width="16" height="16" viewBox="0 0 16 16" fill="none" xmlns="http://www.w3.org/2000/svg">
<path d="M13.8538 5.35403L10.8538 8.35403C10.7599 8.44785 10.6327 8.50056 10.5 8.50056C10.3673 8.50056 10.2401 8.44785 10.1462 8.35403C10.0524 8.26021 9.99972 8.13296 9.99972 8.00028C9.99972 7.8676 10.0524 7.74035 10.1462 7.64653L12.2931 5.50028H5V14.0003C5 14.1329 4.94732 14.2601 4.85355 14.3538C4.75979 14.4476 4.63261 14.5003 4.5 14.5003C4.36739 14.5003 4.24021 14.4476 4.14645 14.3538C4.05268 14.2601 4 14.1329 4 14.0003V5.00028C4 4.86767 4.05268 4.74049 4.14645 4.64672C4.24021 4.55296 4.36739 4.50028 4.5 4.50028H12.2931L10.1462 2.35403C10.0998 2.30757 10.0629 2.25242 10.0378 2.19173C10.0127 2.13103 9.99972 2.06598 9.99972 2.00028C9.99972 1.93458 10.0127 1.86953 10.0378 1.80883C10.0629 1.74813 10.0998 1.69298 10.1462 1.64653C10.2401 1.55271 10.3673 1.5 10.5 1.5C10.5657 1.5 10.6308 1.51294 10.6914 1.53808C10.7521 1.56322 10.8073 1.60007 10.8538 1.64653L13.8538 4.64653C13.9002 4.69296 13.9371 4.74811 13.9623 4.80881C13.9874 4.86951 14.0004 4.93457 14.0004 5.00028C14.0004 5.06599 13.9874 5.13105 13.9623 5.19175C13.9371 5.25245 13.9002 5.30759 13.8538 5.35403Z" fill="white"/>
</svg>
