<svg width="25" height="24" viewBox="0 0 25 24" fill="none" xmlns="http://www.w3.org/2000/svg">
<path d="M12.1531 8.45121C11.7209 8.45121 11.3117 8.53397 10.9255 8.69949C10.5393 8.86502 10.2013 9.09031 9.91168 9.37538C9.62202 9.66044 9.39443 9.99609 9.22891 10.3823C9.06338 10.7685 8.98062 11.1823 8.98062 11.6237C8.98062 12.0559 9.06338 12.4651 9.22891 12.8513C9.39443 13.2376 9.62202 13.5755 9.91168 13.8652C10.2013 14.1548 10.5393 14.3824 10.9255 14.548C11.3025 14.7135 11.7117 14.7962 12.1531 14.7962C12.5945 14.7962 13.0083 14.7135 13.3946 14.548C13.7808 14.3824 14.1164 14.1548 14.4015 13.8652C14.6865 13.5755 14.9118 13.2376 15.0774 12.8513C15.2429 12.4743 15.3256 12.0651 15.3256 11.6237C15.3256 11.1823 15.2429 10.7685 15.0774 10.3823C14.9118 9.99609 14.6865 9.66044 14.4015 9.37538C14.1164 9.09031 13.7808 8.86502 13.3946 8.69949C13.0083 8.53397 12.5945 8.45121 12.1531 8.45121ZM12.1531 13.679C11.5922 13.679 11.1094 13.479 10.7048 13.0789C10.3002 12.6789 10.0979 12.1939 10.0979 11.6237C10.0979 11.0536 10.2979 10.5662 10.6979 10.1616C11.0979 9.757 11.583 9.55469 12.1531 9.55469C12.7233 9.55469 13.2106 9.757 13.6152 10.1616C14.0199 10.5662 14.2222 11.0536 14.2222 11.6237C14.2222 12.1939 14.0199 12.6789 13.6152 13.0789C13.2106 13.479 12.7233 13.679 12.1531 13.679ZM16.1946 8.32707C16.1946 8.52937 16.1234 8.70179 15.9808 8.84433C15.8383 8.98686 15.6613 9.05813 15.4498 9.05813C15.2475 9.05813 15.0751 8.98686 14.9325 8.84433C14.79 8.70179 14.7187 8.52937 14.7187 8.32707C14.7187 8.11557 14.79 7.93855 14.9325 7.79602C15.0751 7.65349 15.2475 7.58222 15.4498 7.58222C15.6613 7.58222 15.8383 7.65349 15.9808 7.79602C16.1234 7.93855 16.1946 8.11557 16.1946 8.32707ZM18.2913 9.07192C18.2729 8.57535 18.1924 8.11097 18.0499 7.67877C17.9073 7.24658 17.6568 6.84656 17.2981 6.47874C16.9395 6.1201 16.5418 5.87182 16.105 5.73389C15.6682 5.59595 15.2015 5.51319 14.7049 5.4856C14.4475 5.46721 14.0842 5.45342 13.6152 5.44422C13.1555 5.44422 12.6704 5.44422 12.16 5.44422C11.6497 5.44422 11.16 5.44422 10.691 5.44422C10.222 5.45342 9.85881 5.46721 9.60133 5.4856C9.11396 5.50399 8.65188 5.58446 8.21508 5.72699C7.77829 5.86952 7.37597 6.1201 7.00815 6.47874C6.64952 6.83737 6.40123 7.23508 6.2633 7.67188C6.12536 8.10867 6.0426 8.57535 6.01501 9.07192C5.99662 9.3294 5.98743 9.68803 5.98743 10.1478C5.97823 10.6168 5.97363 11.1065 5.97363 11.6168C5.97363 12.1272 5.97823 12.6169 5.98743 13.0858C5.98743 13.5548 5.99662 13.918 6.01501 14.1755C6.0426 14.6629 6.12536 15.125 6.2633 15.5618C6.40123 15.9986 6.64952 16.3963 7.00815 16.7549C7.37597 17.1227 7.77599 17.3756 8.20818 17.5136C8.64038 17.6515 9.10476 17.7343 9.60133 17.7618C9.85881 17.771 10.222 17.7802 10.691 17.7894C11.16 17.7986 11.6497 17.8032 12.16 17.8032C12.6704 17.8032 13.1555 17.7986 13.6152 17.7894C14.0842 17.7802 14.4475 17.771 14.7049 17.7618C15.2015 17.7343 15.6659 17.6515 16.0981 17.5136C16.5303 17.3756 16.9303 17.1227 17.2981 16.7549C17.6568 16.3963 17.905 15.9986 18.043 15.5618C18.1809 15.125 18.2637 14.6629 18.2913 14.1755C18.3096 13.918 18.3234 13.5548 18.3326 13.0858C18.3326 12.6169 18.3326 12.1272 18.3326 11.6168C18.3326 11.1065 18.3326 10.6214 18.3326 10.1616C18.3234 9.69263 18.3096 9.3294 18.2913 9.07192ZM16.9809 15.2652C16.8705 15.5319 16.7142 15.7664 16.5119 15.9687C16.3096 16.171 16.0705 16.3273 15.7946 16.4377C15.5923 16.5204 15.3302 16.5802 15.0084 16.617C14.6957 16.6538 14.3647 16.6768 14.0153 16.6859C13.6658 16.6951 13.3256 16.6997 12.9945 16.6997C12.6635 16.6905 12.383 16.6859 12.1531 16.6859C11.9324 16.6859 11.6566 16.6905 11.3255 16.6997C10.9945 16.6997 10.6542 16.6951 10.3048 16.6859C9.95536 16.6768 9.61972 16.6538 9.29787 16.617C8.97602 16.5802 8.71395 16.5204 8.51164 16.4377C8.24497 16.3365 8.01048 16.1848 7.80817 15.9825C7.60587 15.7802 7.44954 15.5411 7.33919 15.2652C7.25643 15.0629 7.19666 14.8008 7.15988 14.479C7.12309 14.1571 7.1001 13.8215 7.09091 13.4721C7.08171 13.1226 7.07711 12.7824 7.07711 12.4513C7.08631 12.1203 7.09091 11.8444 7.09091 11.6237C7.09091 11.3938 7.08631 11.1134 7.07711 10.7823C7.07711 10.4513 7.08171 10.111 7.09091 9.7616C7.1001 9.41216 7.12309 9.08112 7.15988 8.76846C7.19666 8.44661 7.25643 8.18454 7.33919 7.98223C7.44034 7.70636 7.59207 7.46727 7.79438 7.26497C7.99668 7.06266 8.23577 6.90634 8.51164 6.79599C8.71395 6.72242 8.97602 6.66725 9.29787 6.63047C9.61972 6.59368 9.95536 6.56839 10.3048 6.5546C10.6542 6.54081 10.9945 6.53851 11.3255 6.5477C11.6566 6.5477 11.9324 6.5477 12.1531 6.5477C12.383 6.5477 12.6635 6.5477 12.9945 6.5477C13.3256 6.5477 13.6658 6.5523 14.0153 6.5615C14.3647 6.57069 14.6957 6.59368 15.0084 6.63047C15.3302 6.66725 15.5923 6.72242 15.7946 6.79599C16.0705 6.90634 16.3096 7.06266 16.5119 7.26497C16.7142 7.46727 16.8705 7.70636 16.9809 7.98223C17.0544 8.18454 17.1096 8.44661 17.1464 8.76846C17.1832 9.08112 17.2085 9.41216 17.2223 9.7616C17.236 10.111 17.2383 10.4513 17.2292 10.7823C17.2292 11.1134 17.2292 11.3938 17.2292 11.6237C17.2292 11.8444 17.2292 12.1203 17.2292 12.4513C17.2383 12.7824 17.236 13.1226 17.2223 13.4721C17.2085 13.8215 17.1832 14.1571 17.1464 14.479C17.1096 14.8008 17.0544 15.0629 16.9809 15.2652Z" fill="black" fill-opacity="0.6"/>
</svg>
