<svg width="24" height="24" viewBox="0 0 24 24" fill="none" xmlns="http://www.w3.org/2000/svg">
<path d="M9.53613 3.78125C11.1336 3.78126 12.4862 4.33457 13.5947 5.44141C14.7031 6.54844 15.2577 7.90072 15.2578 9.49902C15.2578 10.1923 15.1343 10.8632 14.8887 11.5117C14.643 12.1605 14.3208 12.7155 13.9219 13.1758L13.9141 13.1846L13.9229 13.1924L20.1758 19.4453L19.4854 20.1357L13.2246 13.875L13.2158 13.8818C12.717 14.3065 12.1428 14.6353 11.4941 14.8682C10.8456 15.1009 10.1938 15.2178 9.53906 15.2178C7.94075 15.2177 6.58848 14.664 5.48145 13.5576C4.37471 12.4513 3.82138 11.1001 3.82129 9.50293C3.82129 7.90533 4.37403 6.55196 5.48047 5.44336C6.5869 4.33494 7.93872 3.78125 9.53613 3.78125ZM9.53906 4.75586C8.20897 4.75592 7.08561 5.21403 6.16992 6.12988C5.25407 7.04557 4.79596 8.16893 4.7959 9.49902C4.7959 10.8291 5.25419 11.9525 6.16992 12.8682C7.08561 13.784 8.20897 14.2421 9.53906 14.2422C10.8691 14.2422 11.9923 13.7841 12.9082 12.8682C13.8241 11.9524 14.2822 10.8292 14.2822 9.49902C14.2822 8.16893 13.8241 7.04557 12.9082 6.12988C11.9923 5.21416 10.869 4.75586 9.53906 4.75586Z" fill="black" stroke="black" stroke-width="0.025"/>
</svg>
