<svg width="28" height="24" viewBox="0 0 28 24" fill="none" xmlns="http://www.w3.org/2000/svg">
<path d="M21.8654 8.3594C21.7826 8.03755 21.6217 7.75479 21.3826 7.5111C21.1435 7.26741 20.8631 7.10419 20.5412 7.02143C20.247 6.93867 19.7734 6.8789 19.1205 6.84211C18.4676 6.79613 17.8101 6.76395 17.148 6.74556C16.4859 6.72717 15.9066 6.71337 15.41 6.70418C14.9043 6.70418 14.6514 6.70418 14.6514 6.70418C14.6514 6.70418 14.3985 6.70418 13.8927 6.70418C13.3962 6.71337 12.8168 6.72717 12.1548 6.74556C11.4927 6.76395 10.8352 6.79613 10.1823 6.84211C9.52939 6.8789 9.05581 6.93867 8.76155 7.02143C8.4397 7.10419 8.15923 7.26741 7.92014 7.5111C7.68105 7.75479 7.52013 8.03755 7.43737 8.3594C7.35461 8.65366 7.29024 9.0123 7.24426 9.4353C7.20748 9.8491 7.17989 10.2468 7.1615 10.6284C7.14311 11.0101 7.12931 11.3342 7.12012 11.6009C7.12012 11.8768 7.12012 12.0147 7.12012 12.0147C7.12012 12.0147 7.12012 12.148 7.12012 12.4147C7.12931 12.6814 7.14311 13.0078 7.1615 13.394C7.17989 13.7803 7.20748 14.1803 7.24426 14.5941C7.29024 15.0079 7.35461 15.3619 7.43737 15.6562C7.52013 15.9872 7.68105 16.27 7.92014 16.5045C8.15923 16.739 8.4397 16.8976 8.76155 16.9804C9.05581 17.0631 9.52939 17.1229 10.1823 17.1597C10.8352 17.2057 11.4927 17.2378 12.1548 17.2562C12.8168 17.2746 13.3962 17.2884 13.8927 17.2976C14.3985 17.2976 14.6514 17.2976 14.6514 17.2976C14.6514 17.2976 14.9043 17.2976 15.41 17.2976C15.9066 17.2884 16.4859 17.2746 17.148 17.2562C17.8101 17.2378 18.4676 17.2057 19.1205 17.1597C19.7734 17.1229 20.247 17.0631 20.5412 16.9804C20.8631 16.8976 21.1435 16.739 21.3826 16.5045C21.6217 16.27 21.7826 15.9872 21.8654 15.6562C21.9482 15.3619 22.0125 15.0079 22.0585 14.5941C22.0953 14.1803 22.1229 13.7803 22.1413 13.394C22.1597 13.0078 22.1735 12.6814 22.1826 12.4147C22.1826 12.148 22.1826 12.0147 22.1826 12.0147C22.1826 12.0147 22.1826 11.8768 22.1826 11.6009C22.1735 11.3342 22.1597 11.0101 22.1413 10.6284C22.1229 10.2468 22.0953 9.8491 22.0585 9.4353C22.0125 9.0123 21.9482 8.65366 21.8654 8.3594ZM13.1065 14.2492V9.76634L17.0515 12.0147L13.1065 14.2492Z" fill="black" fill-opacity="0.6"/>
</svg>
